<?xml version="1.0" encoding="utf-8"?>
<!-- Generator: Adobe Illustrator 19.2.1, SVG Export Plug-In . SVG Version: 6.00 Build 0)  -->
<svg version="1.1" id="Layer_1" xmlns="http://www.w3.org/2000/svg" xmlns:xlink="http://www.w3.org/1999/xlink" x="0px" y="0px"
	 viewBox="0 0 90 72" style="enable-background:new 0 0 90 72;" xml:space="preserve">
<style type="text/css">
	.st0{fill:#A6D0EE;}
</style>
<path class="st0" d="M51.4,54.9v-5.2c0.8-0.2,1.5-0.4,2.2-0.6c1.7-0.7,3-1.7,3.9-2.9c0.9-1.3,1.4-2.7,1.4-4.2c0-1.3-0.3-2.4-0.9-3.5
	c-0.6-1-1.4-1.9-2.5-2.4c-0.7-0.4-1.8-0.8-3.1-1.1c1.3-0.4,2.3-1,3-1.6c0.8-0.7,1.4-1.4,1.8-2.3c0.4-0.9,0.6-1.8,0.6-2.7
	c0-1.3-0.4-2.5-1.2-3.6s-1.9-1.9-3.3-2.5c-0.6-0.2-1.2-0.4-1.9-0.5v-5.1h-4.9v4.7h-3.1v-4.7h-4.9v4.7H31v4h1.1
	c0.8,0,1.3,0.1,1.5,0.2c0.3,0.1,0.5,0.3,0.6,0.6c0.1,0.2,0.2,0.8,0.2,1.6v16.1c0,0.8-0.1,1.4-0.2,1.6c-0.1,0.2-0.3,0.4-0.6,0.6
	c-0.3,0.1-0.8,0.2-1.5,0.2H31v4h7.5v4.8h4.9v-4.8h2.8c0.1,0,0.2,0,0.4,0v4.8h4.8V54.9z M41.6,25.9h3.2c1.9,0,3.1,0.1,3.8,0.3
	c0.7,0.2,1.3,0.6,1.7,1.1s0.6,1.2,0.6,1.9c0,0.7-0.2,1.4-0.6,1.9c-0.4,0.6-1,1-1.8,1.3s-2,0.4-3.7,0.4h-3.2V25.9z M45.5,45.5h-2.1
	c-0.7,0-1.1,0-1.3-0.1s-0.3-0.2-0.3-0.4c-0.1-0.1-0.1-0.7-0.1-1.5v-6.3h3.7c1.6,0,2.9,0.2,3.7,0.5s1.4,0.8,1.8,1.3
	c0.4,0.6,0.6,1.3,0.6,2.2c0,1-0.3,1.9-0.8,2.6c-0.6,0.7-1.3,1.2-2.1,1.4C47.7,45.4,46.7,45.5,45.5,45.5L45.5,45.5z M22.6,31.8
	l-9.9,9.5c-0.4,0.3-0.8,0.5-1.3,0.5l0,0c-0.5,0-1-0.2-1.3-0.6l-9.5-9.9c-0.7-0.8-0.7-2,0.1-2.7s2-0.7,2.7,0.1l6.2,6.5
	c0.1-15,9.7-28.3,24.1-33.1C49-3,65.8,2.9,74.6,16.4c0.6,0.9,0.3,2.1-0.6,2.6c-0.9,0.6-2.1,0.3-2.6-0.6C63.6,6.4,48.5,1.1,34.9,5.7
	C22,10,13.4,22,13.3,35.5L20,29c0.8-0.7,2-0.7,2.7,0.1C23.4,29.9,23.4,31.1,22.6,31.8L22.6,31.8z M89.4,42.5c-0.7,0.8-1.9,0.8-2.7,0
	l-6.4-6.4c-0.1,15-9.8,28.4-24.2,33.2c-3.7,1.2-7.5,1.8-11.2,1.8c-11.8,0-23.1-5.9-29.7-16.2c-0.6-0.9-0.3-2.1,0.6-2.6
	c0.9-0.6,2.1-0.3,2.6,0.6C26.2,65,41.2,70.3,54.9,65.7C67.8,61.4,76.4,49.4,76.5,36L70,42.5c-0.4,0.4-0.9,0.6-1.4,0.6
	s-1-0.2-1.3-0.6c-0.7-0.7-0.8-1.9,0-2.7L77,30c0.7-0.7,1.9-0.8,2.7,0l9.8,9.7C90.1,40.5,90.1,41.7,89.4,42.5L89.4,42.5z"/>
</svg>
