<?xml version="1.0" encoding="utf-8"?>
<!-- Generator: Adobe Illustrator 19.2.1, SVG Export Plug-In . SVG Version: 6.00 Build 0)  -->
<svg version="1.1" id="Layer_2" xmlns="http://www.w3.org/2000/svg" xmlns:xlink="http://www.w3.org/1999/xlink" x="0px" y="0px"
	 viewBox="0 0 1000 1000" style="enable-background:new 0 0 1000 1000;" xml:space="preserve">
<style type="text/css">
	.st0{fill:#B9C9D4;}
</style>
<path class="st0" d="M357.2,365l-4.9-4.9l4.9-4.9c0.1-0.1,0.2-0.3,0.2-0.4c0-0.2-0.1-0.3-0.2-0.4l0,0c-0.2-0.2-0.7-0.2-0.9,0
	l-4.9,4.9l-4.9-4.9c-0.2-0.2-0.7-0.2-0.9,0l0,0c-0.2,0.2-0.2,0.7,0,0.9l4.9,4.9l-4.9,4.9c-0.2,0.2-0.2,0.7,0,0.9l0,0
	c0.1,0.1,0.3,0.2,0.4,0.2s0.3-0.1,0.4-0.2l4.9-4.9l4.9,4.9c0.1,0.1,0.3,0.2,0.4,0.2c0.2,0,0.3-0.1,0.4-0.2l0,0
	C357.4,365.7,357.4,365.3,357.2,365z"/>
</svg>
