<?xml version="1.0" encoding="utf-8"?>
<!-- Generator: Adobe Illustrator 19.2.1, SVG Export Plug-In . SVG Version: 6.00 Build 0)  -->
<svg version="1.1" id="Layer_1" xmlns="http://www.w3.org/2000/svg" xmlns:xlink="http://www.w3.org/1999/xlink" x="0px" y="0px"
	 viewBox="0 0 137 28" style="enable-background:new 0 0 137 28;" xml:space="preserve">
<style type="text/css">
	.st0{fill:#FFFFFF;}
</style>
<g>
	<path class="st0" d="M24,7.6c-2.5,0-5,1.9-6.6,3.3c-0.5-0.5-1.2-0.9-1.9-1.1c0.6-1.3,1.7-2.3,2.8-3c2.4-1.6,2.2-4.3,0-5.6
		c-4-2.4-10.5-0.8-10.5,3.2c0,2.5,1.9,5,3.3,6.6c-0.5,0.5-0.9,1.2-1.1,1.9c-1.3-0.6-2.3-1.7-3-2.8c-1.6-2.4-4.3-2.2-5.6,0
		C-1,14,0.7,20.4,4.7,20.4c2.5,0,5-1.9,6.6-3.3c0.5,0.5,1.2,0.9,1.9,1.1c-0.6,1.3-1.7,2.3-2.8,3c-2.4,1.6-2.2,4.3,0,5.6
		c4,2.4,10.5,0.8,10.5-3.2c0-2.5-1.9-5-3.3-6.6c0.5-0.5,0.9-1.2,1.1-1.9c1.3,0.6,2.3,1.7,3,2.8c1.6,2.4,4.3,2.2,5.6,0
		C29.6,14,28,7.6,24,7.6L24,7.6z M14.3,15.7c-1,0-1.7-0.8-1.7-1.7c0-1,0.8-1.7,1.7-1.7s1.7,0.8,1.7,1.7C16.1,15,15.3,15.7,14.3,15.7
		L14.3,15.7z M14.3,15.7"/>
	<g>
		<path class="st0" d="M40.5,6.7c1.8,0,3.2,0.4,4.2,1.2s1.5,1.9,1.5,3.5c0,0.8-0.2,1.4-0.7,2s-1.1,1-1.9,1.3c1,0.2,1.8,0.7,2.4,1.5
			c0.6,0.8,0.9,1.7,0.9,2.8c0,1.6-0.5,2.8-1.5,3.6s-2.4,1.2-4.1,1.2H33v-1.5l1.9-0.3V8.5L33,8.2V6.7h1.9H40.5z M37.2,14h3.9
			c0.8,0,1.5-0.3,2-0.7s0.8-1.1,0.8-1.9c0-0.9-0.3-1.6-0.9-2.1s-1.4-0.7-2.5-0.7h-3.3V14z M37.2,15.8V22h4c1.1,0,1.9-0.3,2.5-0.8
			s0.9-1.3,0.9-2.2c0-1-0.2-1.8-0.7-2.4s-1.2-0.9-2.2-0.9H37.2z"/>
		<path class="st0" d="M53,8v3.1h2.4v1.7H53v7.7c0,0.6,0.1,1,0.4,1.3s0.6,0.4,1,0.4c0.2,0,0.4,0,0.7-0.1s0.5-0.1,0.6-0.1l0.3,1.6
			c-0.2,0.1-0.5,0.3-1,0.3S54.2,24,53.8,24c-0.9,0-1.7-0.3-2.2-0.8s-0.8-1.5-0.8-2.7v-7.7h-2v-1.7h2V8H53z"/>
		<path class="st0" d="M63.5,22.2c0.8,0,1.4-0.2,2-0.7s0.9-1.1,0.9-1.7h2.1l0,0.1c0,1.1-0.4,2.1-1.5,2.9S64.8,24,63.5,24
			c-1.8,0-3.3-0.6-4.2-1.8s-1.5-2.7-1.5-4.5v-0.5c0-1.8,0.5-3.3,1.5-4.5s2.4-1.8,4.2-1.8c1,0,1.9,0.2,2.7,0.5s1.5,0.8,2,1.4l0.1,2.8
			h-1.8l-0.5-2c-0.3-0.3-0.6-0.5-1.1-0.6s-0.9-0.2-1.5-0.2c-1.2,0-2.1,0.4-2.6,1.3s-0.8,1.9-0.8,3.2v0.5c0,1.3,0.3,2.4,0.8,3.2
			S62.2,22.2,63.5,22.2z"/>
		<path class="st0" d="M80.4,15.1h-1.7l-0.4-1.5c-0.3-0.3-0.6-0.5-1.1-0.6s-0.9-0.2-1.4-0.2c-0.8,0-1.4,0.2-1.8,0.5
			s-0.6,0.8-0.6,1.3c0,0.5,0.2,0.9,0.5,1.2s1.1,0.5,2.1,0.8c1.6,0.3,2.8,0.8,3.6,1.4s1.2,1.4,1.2,2.4c0,1.1-0.5,2-1.4,2.7
			s-2.1,1-3.6,1c-1,0-1.8-0.1-2.6-0.3s-1.4-0.5-2.1-1l0-2.9h1.7l0.4,1.7c0.3,0.2,0.6,0.4,1.1,0.5s0.9,0.2,1.4,0.2
			c0.8,0,1.5-0.2,1.9-0.5s0.7-0.8,0.7-1.3c0-0.5-0.2-0.9-0.6-1.3s-1.1-0.6-2.2-0.9c-1.5-0.3-2.7-0.8-3.5-1.4S71,15.6,71,14.6
			c0-1,0.4-1.9,1.3-2.6s2-1.1,3.4-1.1c1,0,1.8,0.1,2.6,0.4s1.4,0.6,1.9,1L80.4,15.1z"/>
		<path class="st0" d="M82.6,22.3l1.9-0.3V7.3L82.6,7V5.5h4.2v7.3c0.4-0.6,1-1.1,1.6-1.4s1.3-0.5,2.1-0.5c1.4,0,2.4,0.4,3.2,1.2
			s1.1,2.1,1.1,3.8V22l1.9,0.3v1.5h-6.1v-1.5l1.9-0.3v-6.2c0-1-0.2-1.8-0.7-2.3s-1.1-0.8-2-0.8c-0.6,0-1.2,0.2-1.7,0.5
			s-0.9,0.7-1.3,1.2V22l1.9,0.3v1.5h-6.1V22.3z"/>
		<path class="st0" d="M106.7,23.8c-0.1-0.3-0.1-0.7-0.2-0.9s-0.1-0.5-0.1-0.8c-0.4,0.6-1,1-1.7,1.4s-1.4,0.6-2.1,0.6
			c-1.3,0-2.3-0.3-3-1s-1-1.6-1-2.7c0-1.2,0.5-2.1,1.5-2.8s2.3-1,4-1h2.4v-1.5c0-0.7-0.2-1.3-0.7-1.8s-1.1-0.7-2-0.7
			c-0.6,0-1.1,0.1-1.5,0.2s-0.8,0.4-1.1,0.6l-0.2,1.3h-1.8v-2.5c0.6-0.5,1.3-0.8,2.1-1.1s1.7-0.4,2.7-0.4c1.4,0,2.6,0.4,3.5,1.1
			s1.3,1.8,1.3,3.2v6.1c0,0.2,0,0.3,0,0.5s0,0.3,0,0.5l0.9,0.1v1.5H106.7z M103,22.1c0.8,0,1.5-0.2,2.1-0.6s1.1-0.8,1.4-1.3v-2.1
			H104c-0.9,0-1.7,0.2-2.2,0.7s-0.8,1-0.8,1.6c0,0.6,0.2,1,0.5,1.3S102.3,22.1,103,22.1z"/>
		<path class="st0" d="M120.2,22.3c-0.4,0.6-0.9,1-1.5,1.3s-1.3,0.4-2.1,0.4c-1.5,0-2.8-0.6-3.6-1.7s-1.3-2.6-1.3-4.4v-0.2
			c0-2,0.4-3.7,1.3-4.9s2.1-1.9,3.7-1.9c0.8,0,1.4,0.1,2,0.4s1.1,0.7,1.5,1.2V7.3L118.2,7V5.5h1.9h2.3V22l1.9,0.3v1.5h-3.9
			L120.2,22.3z M114,17.9c0,1.3,0.3,2.3,0.8,3.1s1.3,1.2,2.4,1.2c0.7,0,1.3-0.2,1.7-0.5s0.9-0.8,1.2-1.3v-5.9
			c-0.3-0.5-0.7-1-1.2-1.3s-1-0.5-1.7-0.5c-1.1,0-1.9,0.5-2.4,1.4s-0.8,2.1-0.8,3.6V17.9z"/>
		<path class="st0" d="M131.8,24c-1.8,0-3.2-0.6-4.2-1.8c-1-1.2-1.6-2.7-1.6-4.6v-0.5c0-1.8,0.5-3.3,1.6-4.5
			c1.1-1.2,2.3-1.8,3.8-1.8c1.7,0,3,0.5,3.9,1.5s1.3,2.4,1.3,4.1V18h-8.2l0,0.1c0,1.2,0.3,2.2,0.9,3s1.4,1.2,2.5,1.2
			c0.8,0,1.5-0.1,2.1-0.3s1.1-0.5,1.5-0.9l0.9,1.5c-0.5,0.4-1.1,0.8-1.8,1.1S132.9,24,131.8,24z M131.5,12.7c-0.8,0-1.4,0.3-2,1
			s-0.9,1.5-1,2.5l0,0.1h5.8v-0.3c0-0.9-0.2-1.7-0.7-2.3S132.4,12.7,131.5,12.7z"/>
	</g>
</g>
</svg>
